<svg xmlns="http://www.w3.org/2000/svg" width="219" height="147" viewBox="0 0 219 147">
  <defs>
    <style>
      .cls-1 {
        fill: #fff;
        fill-rule: evenodd;
      }
    </style>
  </defs>
  <path class="cls-1" d="M206.5,84a13.559,13.559,0,0,1-9.444-3.635L118.183,126.24a12,12,0,1,1-16.311-.05L22.188,79.029A12.436,12.436,0,0,1,12,84C5.373,84,0,79.3,0,73.5S5.373,63,12,63a12.574,12.574,0,0,1,9.713,4.351l79.568-46.28A12.726,12.726,0,0,1,98,12.5a12.01,12.01,0,1,1,24,0,12.724,12.724,0,0,1-3.332,8.63L196.515,67.2A13.378,13.378,0,0,1,206.5,63c6.9,0,12.5,4.7,12.5,10.5S213.4,84,206.5,84Z"/>
</svg>
